<svg id="Objects" xmlns="http://www.w3.org/2000/svg" viewBox="0 0 600 500">
  <defs>
    <style>
      .cls-1 {
        fill: #39b54a;
      }

      .cls-2 {
        fill: #b3e2ff;
      }

      .cls-3 {
        fill: #d0a300;
      }

      .cls-4 {
        fill: #f65257;
      }

      .cls-5 {
        fill: #d8d8d8;
      }

      .cls-6 {
        fill: #f9e575;
      }

      .cls-7 {
        fill: #ff858e;
      }

      .cls-8 {
        fill: #ce4952;
      }

      .cls-9 {
        fill: #1e3f59;
      }

      .cls-10 {
        fill: #fff;
      }

      .cls-11 {
        fill: #b6e5ff;
      }

      .cls-12 {
        fill: none;
        stroke: #1e3f59;
        stroke-miterlimit: 10;
      }

      .cls-13 {
        fill: #603913;
      }

      .cls-14 {
        fill: #2c76b1;
      }

      .cls-15 {
        fill: #3b94d1;
      }

      .cls-16 {
        fill: #f7b879;
      }

      .cls-17 {
        fill: #e29550;
      }

      .cls-18 {
        fill: #201444;
      }

      .cls-19 {
        fill: #f6575d;
      }

      .cls-20 {
        fill: #f9d300;
      }
    </style>
  </defs>
  <title>coming-soon</title>
  <g>
    <g>
      <path class="cls-1" d="M91.68,450.58c-13.51-3.22-22.22-19.49-17.41-32.52s22-19.75,34.36-13.43a47.48,47.48,0,0,1,12.85-30c7.74-8,18.9-12.7,30-12,17.14,1.07,31.46,14.69,38.4,30.39s7.87,33.32,8.52,50.48c0,.65-.06,1.49-.69,1.7s-.88-1.17-.27-.93"/>
      <path class="cls-1" d="M508.32,450.58c13.51-3.22,22.22-19.49,17.41-32.52s-22-19.75-34.36-13.43a47.48,47.48,0,0,0-12.85-30c-7.74-8-18.9-12.7-30-12-17.14,1.07-31.46,14.69-38.4,30.39s-7.87,33.32-8.52,50.48c0,.65.06,1.49.69,1.7s.88-1.17.27-.93"/>
    </g>
    <g>
      <path class="cls-2" d="M503,177.8a16.6,16.6,0,0,1,8.43,2.29,26.31,26.31,0,0,1,52.4.86,14.56,14.56,0,0,1,5.69-1.14,14.73,14.73,0,0,1,14.73,14.74h-98A16.74,16.74,0,0,1,503,177.8Z"/>
      <path class="cls-2" d="M81.25,274.71a16.61,16.61,0,0,0-8.43,2.3,26.31,26.31,0,0,0-52.4.85A14.74,14.74,0,0,0,0,291.46H98A16.73,16.73,0,0,0,81.25,274.71Z"/>
      <path class="cls-2" d="M518.75,21.23a16.6,16.6,0,0,1,8.43,2.29,26.31,26.31,0,0,1,52.4.86,14.57,14.57,0,0,1,5.69-1.15A14.74,14.74,0,0,1,600,38H502A16.73,16.73,0,0,1,518.75,21.23Z"/>
      <path class="cls-2" d="M223.18,54.16a16.72,16.72,0,0,0-10.53,3.73l-.32.3a29.47,29.47,0,0,0-41.71-12.57,33.42,33.42,0,0,0-65.13,10c0,.18,0,.36,0,.53,0,.35,0,.7,0,1.05a14.72,14.72,0,0,0-20.15,13.7H239.91A16.73,16.73,0,0,0,223.18,54.16Z"/>
      <path class="cls-2" d="M492.63,371.17a9.44,9.44,0,0,1,6,2.11l.18.17a16.71,16.71,0,0,1,23.65-7.13A18.94,18.94,0,0,1,559.35,372c0,.1,0,.2,0,.3s0,.39,0,.59a8.35,8.35,0,0,1,11.43,7.77H483.14A9.49,9.49,0,0,1,492.63,371.17Z"/>
    </g>
    <g>
      <g>
        <g>
          <rect class="cls-3" x="197.42" y="158.32" width="7.7" height="63.93"/>
          <rect class="cls-3" x="394.87" y="158.32" width="7.7" height="63.93"/>
        </g>
        <rect class="cls-4" x="185.17" y="29.56" width="229.66" height="134.23"/>
      </g>
      <g>
        <path class="cls-5" d="M527.91,459.15c0,22.56-102,40.85-227.91,40.85S72.09,481.71,72.09,459.15s102-20.7,227.91-20.7S527.91,436.6,527.91,459.15Z"/>
        <g>
          <polygon class="cls-6" points="313.41 209.72 286.59 209.72 121.96 209.72 131.65 453.27 286.59 453.27 313.41 453.27 468.35 453.27 478.04 209.72 313.41 209.72"/>
          <g>
            <polygon class="cls-7" points="518.11 229.09 77.34 229.09 133.56 184.27 461.89 184.27 518.11 229.09"/>
            <g>
              <path class="cls-4" d="M77.34,229.09h25.93a0,0,0,0,1,0,0v16.18A9.75,9.75,0,0,1,93.52,255H87.09a9.75,9.75,0,0,1-9.75-9.75V229.09A0,0,0,0,1,77.34,229.09Z"/>
              <path class="cls-8" d="M103.27,229.09H129.2a0,0,0,0,1,0,0v16.18a9.75,9.75,0,0,1-9.75,9.75H113a9.75,9.75,0,0,1-9.75-9.75V229.09a0,0,0,0,1,0,0Z"/>
              <path class="cls-4" d="M129.2,229.09h25.93a0,0,0,0,1,0,0v16.18a9.75,9.75,0,0,1-9.75,9.75h-6.43a9.75,9.75,0,0,1-9.75-9.75V229.09A0,0,0,0,1,129.2,229.09Z"/>
              <path class="cls-8" d="M155.13,229.09h25.93a0,0,0,0,1,0,0v16.18a9.75,9.75,0,0,1-9.75,9.75h-6.43a9.75,9.75,0,0,1-9.75-9.75V229.09A0,0,0,0,1,155.13,229.09Z"/>
              <path class="cls-4" d="M181.05,229.09H207a0,0,0,0,1,0,0v16.18a9.75,9.75,0,0,1-9.75,9.75H190.8a9.75,9.75,0,0,1-9.75-9.75V229.09A0,0,0,0,1,181.05,229.09Z"/>
              <path class="cls-8" d="M207,229.09h25.93a0,0,0,0,1,0,0v16.18a9.75,9.75,0,0,1-9.75,9.75h-6.43a9.75,9.75,0,0,1-9.75-9.75V229.09A0,0,0,0,1,207,229.09Z"/>
              <path class="cls-4" d="M232.91,229.09h25.93a0,0,0,0,1,0,0v16.18a9.75,9.75,0,0,1-9.75,9.75h-6.43a9.75,9.75,0,0,1-9.75-9.75V229.09a0,0,0,0,1,0,0Z"/>
              <path class="cls-8" d="M258.84,229.09h25.93a0,0,0,0,1,0,0v16.18A9.75,9.75,0,0,1,275,255h-6.43a9.75,9.75,0,0,1-9.75-9.75V229.09A0,0,0,0,1,258.84,229.09Z"/>
              <path class="cls-4" d="M284.76,229.09h25.93a0,0,0,0,1,0,0v16.18a9.75,9.75,0,0,1-9.75,9.75h-6.43a9.75,9.75,0,0,1-9.75-9.75V229.09a0,0,0,0,1,0,0Z"/>
              <path class="cls-8" d="M310.69,229.09h25.93a0,0,0,0,1,0,0v16.18a9.75,9.75,0,0,1-9.75,9.75h-6.43a9.75,9.75,0,0,1-9.75-9.75V229.09a0,0,0,0,1,0,0Z"/>
              <path class="cls-4" d="M336.62,229.09h25.93a0,0,0,0,1,0,0v16.18A9.75,9.75,0,0,1,352.8,255h-6.43a9.75,9.75,0,0,1-9.75-9.75V229.09A0,0,0,0,1,336.62,229.09Z"/>
              <path class="cls-8" d="M362.55,229.09h25.93a0,0,0,0,1,0,0v16.18a9.75,9.75,0,0,1-9.75,9.75h-6.43a9.75,9.75,0,0,1-9.75-9.75V229.09A0,0,0,0,1,362.55,229.09Z"/>
              <path class="cls-4" d="M388.47,229.09H414.4a0,0,0,0,1,0,0v16.18a9.75,9.75,0,0,1-9.75,9.75h-6.43a9.75,9.75,0,0,1-9.75-9.75V229.09A0,0,0,0,1,388.47,229.09Z"/>
              <path class="cls-8" d="M414.4,229.09h25.93a0,0,0,0,1,0,0v16.18a9.75,9.75,0,0,1-9.75,9.75h-6.43a9.75,9.75,0,0,1-9.75-9.75V229.09A0,0,0,0,1,414.4,229.09Z"/>
              <path class="cls-4" d="M440.33,229.09h25.93a0,0,0,0,1,0,0v16.18a9.75,9.75,0,0,1-9.75,9.75h-6.43a9.75,9.75,0,0,1-9.75-9.75V229.09A0,0,0,0,1,440.33,229.09Z"/>
              <path class="cls-8" d="M466.26,229.09h25.93a0,0,0,0,1,0,0v16.18a9.75,9.75,0,0,1-9.75,9.75H476a9.75,9.75,0,0,1-9.75-9.75V229.09a0,0,0,0,1,0,0Z"/>
              <path class="cls-4" d="M492.18,229.09h25.93a0,0,0,0,1,0,0v16.18a9.75,9.75,0,0,1-9.75,9.75h-6.43a9.75,9.75,0,0,1-9.75-9.75V229.09a0,0,0,0,1,0,0Z"/>
            </g>
          </g>
          <rect class="cls-9" x="159.08" y="266.01" width="93.42" height="187.27"/>
          <rect class="cls-9" x="274.55" y="266.01" width="166.38" height="137.28"/>
          <rect class="cls-10" x="281.43" y="273.24" width="152.61" height="122.81"/>
          <g>
            <rect class="cls-10" x="167.48" y="275.87" width="76.62" height="170.14"/>
            <polygon class="cls-11" points="244.1 275.88 244.1 294.69 181.04 446.02 167.48 446.02 167.48 435.86 234.27 275.88 244.1 275.88"/>
            <path class="cls-11" d="M217.49,275.87c-11.54,23.7-36.68,75.33-50,102.79V356.79l41.19-80.92Z"/>
          </g>
          <line class="cls-12" x1="205.79" y1="273.25" x2="205.79" y2="453.27"/>
          <g>
            <line class="cls-12" x1="164.24" y1="329.07" x2="249.15" y2="329.07"/>
            <line class="cls-12" x1="164.24" y1="392.82" x2="249.15" y2="392.82"/>
          </g>
          <polygon class="cls-11" points="434.04 273.25 434.04 292.68 390.96 396.05 373.18 396.05 424.45 273.25 434.04 273.25"/>
          <polygon class="cls-11" points="408.23 273.25 357.06 396.05 348.34 396.05 399.61 273.25 408.23 273.25"/>
          <polygon class="cls-11" points="329.36 273.25 281.43 388.26 281.43 367.42 320.75 273.25 329.36 273.25"/>
        </g>
        <g>
          <path class="cls-1" d="M284.71,430.84c-2-1.82-1.91-5.13-.43-7.36a11.28,11.28,0,0,1,6.61-4.21A21.6,21.6,0,0,1,308.08,422c1.41-8.6,10.11-14.95,18.82-14.91s16.83,5.63,21.21,13.16a24.93,24.93,0,0,1,10.56-12.71,12.31,12.31,0,0,1,7.92-2c3.3.5,6,3,7.58,6s2.18,6.31,2.77,9.6c2.61-5.2,7.28-9.86,13.08-10.43s12,4.59,11,10.31a67.58,67.58,0,0,1,12.16-5.59,23.47,23.47,0,0,1,9.91-1.62c3.36.34,6.73,2.08,8.26,5.09,2.21,4.32.1,9.49-2,13.87l-1.75.27"/>
          <polygon class="cls-13" points="429.98 462.41 285.49 462.41 281.43 429.62 434.04 429.62 429.98 462.41"/>
        </g>
        <g>
          <g>
            <g>
              <polyline class="cls-9" points="141.68 408.1 149.29 469.4 140.08 475.85 156.38 475.85 156.78 408.1"/>
              <polyline class="cls-9" points="174.49 408.1 174.43 469.4 184.44 475.85 168.14 475.85 159.38 408.1"/>
            </g>
            <g>
              <path class="cls-14" d="M178.94,403.28c-14,.15-27.94.41-41.75.84l4.46-66.42h32.88Z"/>
              <path class="cls-15" d="M164.56,337.7v4.13a6.47,6.47,0,1,1-12.94,0V337.7Z"/>
              <path class="cls-15" d="M137.18,404.12l-.38,5.73h42.57l-.44-6.56C165,403.43,151,403.7,137.18,404.12Z"/>
            </g>
            <g>
              <g>
                <path class="cls-16" d="M200.69,295s-1.47-9.77,0-10.45,2.4,5.22,2.4,5.22,5.48-9,6.59-8.82-2,7.81-2,7.81,5.47-6.78,6.41-6.1-3.59,8-3.59,8,6.42-4.53,7.36-3.93-4.54,6-4.54,6,4.16-.77,4.65-.35S206.43,300,206.43,300"/>
                <path class="cls-15" d="M205.65,307.3l5.1-7-12.7-8.54-2.9,5.63A77.26,77.26,0,0,0,205.65,307.3Z"/>
                <path class="cls-14" d="M195.15,297.35l-21.41,41.41L175,349.64l30.63-42.34A77.26,77.26,0,0,1,195.15,297.35Z"/>
              </g>
              <g>
                <path class="cls-16" d="M107.08,301.47s-.57-9.86-2.15-10.23-1.28,5.61-1.28,5.61-7.2-7.68-8.25-7.28,3.52,7.23,3.52,7.23-6.74-5.51-7.52-4.64,5.16,7.13,5.16,7.13-7.21-3.12-8-2.35,5.66,4.93,5.66,4.93-4.22.1-4.61.62,12.88,5.08,12.88,5.08"/>
                <path class="cls-15" d="M104.74,314.52l-6.43-5.84,10.67-11,4,4.91A77,77,0,0,1,104.74,314.52Z"/>
                <path class="cls-14" d="M113,302.62l29.44,36.14,1,10.91-38.67-35.15A77,77,0,0,0,113,302.62Z"/>
              </g>
            </g>
            <g>
              <path class="cls-17" d="M154,331h8.16a0,0,0,0,1,0,0v11a2.39,2.39,0,0,1-2.39,2.39h-3.38A2.39,2.39,0,0,1,154,342V331A0,0,0,0,1,154,331Z"/>
              <g>
                <g>
                  <circle class="cls-17" cx="140.12" cy="319.47" r="5.65"/>
                  <circle class="cls-17" cx="173.32" cy="316.76" r="5.65"/>
                </g>
                <path class="cls-16" d="M140.11,300.64l1.82,20.49a15.06,15.06,0,1,0,30-2.67L170.12,298Z"/>
                <g>
                  <path class="cls-18" d="M141.73,320.1s4.13-7.8,1.68-20.23l-4.94.69Z"/>
                  <path class="cls-18" d="M171.84,317.65s-5.34-7-4.94-19.7l5-.12Z"/>
                </g>
                <path class="cls-18" d="M138.37,296.47a7.42,7.42,0,0,1,3.28-2.35,3.79,3.79,0,0,1,3.8.77c1.23-3.29,3.93-5.84,6.89-7.71a19.7,19.7,0,0,1,11.23-3.33,12.23,12.23,0,0,1,9.94,5.61,10,10,0,0,1,1.19,3.16,7.23,7.23,0,0,1,0,3.14,8.33,8.33,0,0,1-1.4,2.77,15.72,15.72,0,0,1-16.8,5.68,3.11,3.11,0,0,1-1.72,3,7,7,0,0,1-3.55.64C146.47,307.69,132.42,303.27,138.37,296.47Z"/>
                <g>
                  <circle class="cls-18" cx="149.81" cy="318.06" r="1.82"/>
                  <circle class="cls-18" cx="163.53" cy="316.94" r="1.82"/>
                </g>
                <g>
                  <path class="cls-18" d="M164,322.25a6.91,6.91,0,0,1-6.29,7.41,6.89,6.89,0,0,1-7.42-6.3Z"/>
                  <ellipse class="cls-4" cx="157.47" cy="327.23" rx="5.24" ry="2.44" transform="matrix(1, -0.08, 0.08, 1, -26.08, 13.88)"/>
                </g>
                <path class="cls-4" d="M156.61,311.84l-.79.07-.62,7.51a1.65,1.65,0,0,0,1.78,1.79h0a1.65,1.65,0,0,0,1.46-2Z"/>
                <g>
                  <path class="cls-18" d="M148.34,311.52h2.15A1.52,1.52,0,0,1,152,313v1.43a0,0,0,0,1,0,0h-5.18a0,0,0,0,1,0,0V313A1.52,1.52,0,0,1,148.34,311.52Z" transform="translate(-24.95 13.18) rotate(-4.66)"/>
                  <path class="cls-18" d="M162,310.4h2.15a1.52,1.52,0,0,1,1.52,1.52v1.43a0,0,0,0,1,0,0h-5.18a0,0,0,0,1,0,0v-1.43A1.52,1.52,0,0,1,162,310.4Z" transform="translate(-24.81 14.29) rotate(-4.66)"/>
                </g>
              </g>
            </g>
          </g>
          <g>
            <path class="cls-18" d="M467.07,359.7l-35.4-3.08a6.16,6.16,0,0,1-5.53-7.21l7.69-43.62a20.11,20.11,0,0,1,21.54-16.54h0a20.12,20.12,0,0,1,18.37,20l0,44.29A6.16,6.16,0,0,1,467.07,359.7Z"/>
            <g>
              <polyline class="cls-9" points="435.19 408.1 444.24 469.4 436.45 475.85 449.88 475.85 450.29 408.1"/>
              <polyline class="cls-9" points="467.99 408.1 458.94 469.4 466.72 475.85 453.29 475.85 452.89 408.1"/>
            </g>
            <g>
              <path class="cls-16" d="M494.19,295s-1.47-9.77,0-10.45,2.41,5.22,2.41,5.22,5.47-9,6.58-8.82-2,7.81-2,7.81,5.48-6.78,6.42-6.1-3.59,8-3.59,8,6.41-4.53,7.35-3.93-4.53,6-4.53,6,4.15-.77,4.64-.35S499.93,300,499.93,300l-33.32,45.58-1.84-7Z"/>
              <path class="cls-16" d="M408.92,295s1.46-9.77,0-10.45-2.41,5.22-2.41,5.22-5.47-9-6.58-8.82,2,7.81,2,7.81-5.47-6.78-6.41-6.1,3.59,8,3.59,8-6.41-4.53-7.35-3.93,4.53,6,4.53,6-4.15-.77-4.64-.35S403.18,300,403.18,300l33.32,45.58,1.84-7Z"/>
              <polygon class="cls-19" points="438.04 337.7 431.44 325.66 423.41 336.06 436.38 346.88 438.04 337.7"/>
              <path class="cls-20" d="M472.44,403.28c-14,.15-27.93.41-41.75.84l6.53-35.77-3.59-8L438,337.7h27.08l4.52,23.24-3.41,7.32Z"/>
              <path class="cls-19" d="M458.06,337.7v4.13a6.47,6.47,0,0,1-12.94,0V337.7Z"/>
              <path class="cls-17" d="M447.51,331h8.16a0,0,0,0,1,0,0v11a2.39,2.39,0,0,1-2.39,2.39H449.9a2.39,2.39,0,0,1-2.39-2.39V331A0,0,0,0,1,447.51,331Z"/>
              <path class="cls-19" d="M430.69,404.12l-.39,5.73h42.57l-.44-6.56C458.47,403.43,444.51,403.7,430.69,404.12Z"/>
            </g>
            <g>
              <g>
                <g>
                  <circle class="cls-17" cx="436.45" cy="316.65" r="5.65"/>
                  <circle class="cls-17" cx="469.63" cy="319.54" r="5.65"/>
                </g>
                <path class="cls-16" d="M439.59,298.09,438,318.59A15.06,15.06,0,1,0,468,321l1.63-20.5Z"/>
                <g>
                  <circle class="cls-18" cx="446.24" cy="316.88" r="1.82"/>
                  <circle class="cls-18" cx="459.95" cy="318.08" r="1.82"/>
                </g>
                <g>
                  <path class="cls-18" d="M459.49,323.38A6.87,6.87,0,0,1,447,326.75a6.77,6.77,0,0,1-1.25-4.57Z"/>
                  <ellipse class="cls-4" cx="452.25" cy="327.2" rx="2.44" ry="5.24" transform="translate(87.03 749.35) rotate(-85.02)"/>
                </g>
                <path class="cls-4" d="M454,314.72a.64.64,0,0,0-1.24-.1l-1.4,4.51a1.65,1.65,0,0,0,1.45,2.05h0a1.64,1.64,0,0,0,1.79-1.77Z"/>
              </g>
              <path class="cls-18" d="M437.54,315.62s16.5-4.62,21-13.34c0,0,3.16,14.57,10.19,16.56l1.65-19-31.2-2.72Z"/>
            </g>
            <polygon class="cls-19" points="465.07 337.7 471.67 325.66 479.7 336.06 466.73 346.88 465.07 337.7"/>
          </g>
        </g>
      </g>
    </g>
  </g>
  <g>
    <path class="cls-10" d="M206.33,78.43A15.82,15.82,0,0,1,200,71.82a21.23,21.23,0,0,1-2.22-9.94A21.13,21.13,0,0,1,200,52a15.63,15.63,0,0,1,6.38-6.58,19.63,19.63,0,0,1,9.74-2.33,22,22,0,0,1,7,1.11,14.27,14.27,0,0,1,5.45,3.13L226,53.09a19.14,19.14,0,0,0-4.83-2.71,14.33,14.33,0,0,0-4.94-.85q-5,0-7.59,3.15T206,61.88q0,6.09,2.64,9.27t7.59,3.18a14.34,14.34,0,0,0,4.94-.86A19.14,19.14,0,0,0,226,70.76l2.53,5.79a14.38,14.38,0,0,1-5.45,3.12,22,22,0,0,1-7,1.11A19.43,19.43,0,0,1,206.33,78.43Z"/>
    <path class="cls-10" d="M240.79,78.48a15.41,15.41,0,0,1-6.25-6.58,21.63,21.63,0,0,1-2.2-10,21.35,21.35,0,0,1,2.2-10,15.51,15.51,0,0,1,6.25-6.53,20.85,20.85,0,0,1,19,0A15.43,15.43,0,0,1,266,51.9a21.59,21.59,0,0,1,2.17,10,21.88,21.88,0,0,1-2.17,10,15.33,15.33,0,0,1-6.19,6.58,20.85,20.85,0,0,1-19,0Zm16.79-7.25q2.61-3.26,2.61-9.35t-2.61-9.3a9.81,9.81,0,0,0-14.52,0q-2.61,3.2-2.61,9.3c0,4.09.87,7.22,2.61,9.37a9.75,9.75,0,0,0,14.52,0Z"/>
    <path class="cls-10" d="M304.67,43.54H311V80.32h-7.13V60.22l-8.47,20.1H290.2l-8.52-19.84V80.32H274.6V43.54H281l11.88,27.12Z"/>
    <path class="cls-10" d="M318.46,80.32V43.54h8.06V80.32Z"/>
    <path class="cls-10" d="M358.19,43.54h7.59V80.32h-6L341.45,56.86V80.32h-7.54V43.54h5.94l18.34,23.4Z"/>
    <path class="cls-10" d="M404.74,60v18a26.78,26.78,0,0,1-6.28,2,37.41,37.41,0,0,1-7.36.72A21.27,21.27,0,0,1,381,78.51,15.67,15.67,0,0,1,374.38,72a21,21,0,0,1-2.3-10.12,20.66,20.66,0,0,1,2.3-10,16.06,16.06,0,0,1,6.51-6.53,20.26,20.26,0,0,1,9.84-2.3,24.29,24.29,0,0,1,7.42,1.09,15.47,15.47,0,0,1,5.65,3L401.22,53a19.28,19.28,0,0,0-5-2.69,16.31,16.31,0,0,0-5.27-.82q-10.63,0-10.64,12.4,0,12.65,11.11,12.65a24.92,24.92,0,0,0,6.09-.77V65.65h-7.23V60Z"/>
    <path class="cls-10" d="M203.64,141.67a18.38,18.38,0,0,1-6.38-3.13l2.59-5.79a20.22,20.22,0,0,0,11.88,3.72,10.77,10.77,0,0,0,5.4-1.11,3.46,3.46,0,0,0,1.88-3.12,3.09,3.09,0,0,0-1.73-2.77,22.63,22.63,0,0,0-6.07-1.93,32.13,32.13,0,0,1-7.72-2.41,10.18,10.18,0,0,1-4.19-3.46,9.25,9.25,0,0,1-1.31-5.09,10.18,10.18,0,0,1,1.83-5.94,12.09,12.09,0,0,1,5.14-4.1,18.51,18.51,0,0,1,7.65-1.48,25,25,0,0,1,7.54,1.14,15.44,15.44,0,0,1,5.79,3.1l-2.59,5.79a17.19,17.19,0,0,0-10.69-3.72,8.78,8.78,0,0,0-5,1.24,3.83,3.83,0,0,0-1.86,3.35,3.07,3.07,0,0,0,.7,2.07,5.72,5.72,0,0,0,2.35,1.47,29.65,29.65,0,0,0,4.7,1.27q7.08,1.55,10.2,4a8.16,8.16,0,0,1,3.13,6.77,9.7,9.7,0,0,1-4,8.18q-4,3-11.21,3A28.91,28.91,0,0,1,203.64,141.67Z"/>
    <path class="cls-10" d="M240.12,140.48a15.43,15.43,0,0,1-6.25-6.59,21.63,21.63,0,0,1-2.2-10,21.31,21.31,0,0,1,2.2-10,15.53,15.53,0,0,1,6.25-6.54,20.83,20.83,0,0,1,19,0,15.42,15.42,0,0,1,6.2,6.54,21.55,21.55,0,0,1,2.17,10,21.88,21.88,0,0,1-2.17,10,15.32,15.32,0,0,1-6.2,6.59,20.83,20.83,0,0,1-19,0Zm16.79-7.26q2.61-3.25,2.61-9.35t-2.61-9.3a9.84,9.84,0,0,0-14.52,0q-2.61,3.21-2.61,9.3t2.61,9.38a9.76,9.76,0,0,0,14.52,0Z"/>
    <path class="cls-10" d="M281.19,140.48a15.43,15.43,0,0,1-6.25-6.59,21.63,21.63,0,0,1-2.2-10,21.31,21.31,0,0,1,2.2-10,15.53,15.53,0,0,1,6.25-6.54,20.83,20.83,0,0,1,19,0,15.42,15.42,0,0,1,6.2,6.54,21.55,21.55,0,0,1,2.17,10,21.88,21.88,0,0,1-2.17,10,15.32,15.32,0,0,1-6.2,6.59,20.83,20.83,0,0,1-19,0ZM298,133.22q2.61-3.25,2.61-9.35t-2.61-9.3a9.84,9.84,0,0,0-14.52,0q-2.61,3.21-2.61,9.3t2.61,9.38a9.76,9.76,0,0,0,14.52,0Z"/>
    <path class="cls-10" d="M339.18,105.53h7.59v36.78h-6l-18.34-23.45v23.45H314.9V105.53h5.94l18.34,23.4Z"/>
    <path class="cls-10" d="M353,134h8.42v8.32H353Z"/>
    <path class="cls-10" d="M366.56,134H375v8.32h-8.42Z"/>
    <path class="cls-10" d="M380.09,134h8.42v8.32h-8.42Z"/>
  </g>
</svg>
