<?xml version="1.0" encoding="utf-8"?>
<!-- Generator: Adobe Illustrator 16.0.0, SVG Export Plug-In . SVG Version: 6.00 Build 0)  -->
<!DOCTYPE svg PUBLIC "-//W3C//DTD SVG 1.1//EN" "http://www.w3.org/Graphics/SVG/1.1/DTD/svg11.dtd">
<svg version="1.1" id="Layer_1" xmlns="http://www.w3.org/2000/svg" xmlns:xlink="http://www.w3.org/1999/xlink" x="0px" y="0px"
	 width="40px" height="40px" viewBox="0 0 40 40" enable-background="new 0 0 40 40" xml:space="preserve">
<path fill="#DBDBDB" d="M37.745,33.928l0.006-23.271c0-0.714-0.583-1.291-1.298-1.291h-16.41c-0.509-0.012-0.904-0.95-0.904-1.304
	V7.913c0-0.759-0.616-1.383-1.377-1.383H9.027c-0.766,0-1.378,0.624-1.378,1.383v0.149c0,0.36-0.406,1.304-0.92,1.304h0.018
	c-0.71,0.017-1.28,0.588-1.28,1.297l0.006,6.74H2.676c0,0-1.233-0.069-0.8,1.4l2.95,15.124c0,0.761,0.527,1.378,1.292,1.378h30.994
	C37.865,35.306,37.745,33.928,37.745,33.928L37.745,33.928z M36.15,19.353L36.139,34.54l-2.932-16.285
	c-0.246-0.899-1.258-0.83-1.258-0.83H7.066v-5.167h29.09v7.095H36.15z M24.443,28.452h7.672v2.909h-7.672V28.452z M24.443,28.452"/>
</svg>
