<svg id="Layer_1" data-name="Layer 1" xmlns="http://www.w3.org/2000/svg" xmlns:xlink="http://www.w3.org/1999/xlink" viewBox="0 0 1350 461.83">
  <defs>
    <style>
      .cls-1, .cls-10, .cls-11, .cls-12, .cls-13, .cls-14, .cls-15, .cls-16, .cls-17, .cls-18, .cls-19, .cls-2, .cls-20, .cls-21, .cls-22, .cls-23, .cls-24, .cls-25, .cls-26, .cls-27, .cls-28, .cls-29, .cls-3, .cls-30, .cls-31, .cls-32, .cls-33, .cls-34, .cls-35, .cls-36, .cls-37, .cls-38, .cls-39, .cls-4, .cls-40, .cls-41, .cls-42, .cls-43, .cls-44, .cls-45, .cls-46, .cls-47, .cls-48, .cls-49, .cls-5, .cls-50, .cls-51, .cls-52, .cls-53, .cls-54, .cls-55, .cls-56, .cls-57, .cls-58, .cls-59, .cls-6, .cls-60, .cls-61, .cls-62, .cls-63, .cls-64, .cls-65, .cls-66, .cls-67, .cls-68, .cls-69, .cls-7, .cls-70, .cls-71, .cls-72, .cls-73, .cls-74, .cls-75, .cls-76, .cls-77, .cls-78, .cls-79, .cls-8, .cls-80, .cls-81, .cls-82, .cls-83, .cls-84, .cls-85, .cls-86, .cls-87, .cls-88, .cls-89, .cls-9, .cls-90, .cls-91, .cls-92, .cls-93, .cls-94, .cls-95, .cls-96, .cls-97, .cls-98 {
        stroke: #57afff;
        stroke-miterlimit: 10;
      }

      .cls-1 {
        fill: url(#radial-gradient);
      }

      .cls-2 {
        fill: url(#radial-gradient-2);
      }

      .cls-3 {
        fill: #fff;
      }

      .cls-4 {
        fill: url(#radial-gradient-7);
      }

      .cls-5 {
        fill: url(#linear-gradient);
      }

      .cls-6 {
        fill: url(#linear-gradient-2);
      }

      .cls-7 {
        fill: url(#linear-gradient-3);
      }

      .cls-8 {
        fill: url(#linear-gradient-4);
      }

      .cls-9 {
        fill: url(#linear-gradient-5);
      }

      .cls-10 {
        fill: url(#linear-gradient-6);
      }

      .cls-11 {
        fill: url(#linear-gradient-7);
      }

      .cls-12 {
        fill: url(#linear-gradient-8);
      }

      .cls-13 {
        fill: url(#linear-gradient-9);
      }

      .cls-14 {
        fill: url(#linear-gradient-10);
      }

      .cls-15 {
        fill: url(#linear-gradient-11);
      }

      .cls-16 {
        fill: url(#radial-gradient-20);
      }

      .cls-17 {
        fill: url(#linear-gradient-12);
      }

      .cls-18 {
        fill: url(#linear-gradient-13);
      }

      .cls-19 {
        fill: url(#linear-gradient-14);
      }

      .cls-20 {
        fill: url(#linear-gradient-15);
      }

      .cls-21 {
        fill: url(#linear-gradient-16);
      }

      .cls-22 {
        fill: url(#linear-gradient-17);
      }

      .cls-23 {
        fill: url(#linear-gradient-18);
      }

      .cls-24 {
        fill: url(#linear-gradient-19);
      }

      .cls-25 {
        fill: url(#linear-gradient-20);
      }

      .cls-26 {
        fill: url(#linear-gradient-21);
      }

      .cls-27 {
        fill: url(#linear-gradient-22);
      }

      .cls-28 {
        fill: url(#linear-gradient-23);
      }

      .cls-29 {
        fill: url(#linear-gradient-24);
      }

      .cls-30 {
        fill: url(#linear-gradient-25);
      }

      .cls-31 {
        fill: url(#linear-gradient-26);
      }

      .cls-32 {
        fill: url(#linear-gradient-27);
      }

      .cls-33 {
        fill: url(#linear-gradient-28);
      }

      .cls-34 {
        fill: url(#linear-gradient-29);
      }

      .cls-35 {
        fill: url(#linear-gradient-30);
      }

      .cls-36 {
        fill: url(#linear-gradient-31);
      }

      .cls-37 {
        fill: url(#linear-gradient-32);
      }

      .cls-38 {
        fill: url(#linear-gradient-33);
      }

      .cls-39 {
        fill: url(#linear-gradient-34);
      }

      .cls-40 {
        fill: url(#linear-gradient-35);
      }

      .cls-41 {
        fill: url(#linear-gradient-36);
      }

      .cls-42 {
        fill: url(#linear-gradient-37);
      }

      .cls-43 {
        fill: url(#linear-gradient-38);
      }

      .cls-44 {
        fill: url(#linear-gradient-39);
      }

      .cls-45 {
        fill: url(#linear-gradient-40);
      }

      .cls-46 {
        fill: url(#linear-gradient-41);
      }

      .cls-47 {
        fill: url(#linear-gradient-42);
      }

      .cls-48 {
        fill: url(#linear-gradient-43);
      }

      .cls-49 {
        fill: url(#linear-gradient-44);
      }

      .cls-50 {
        fill: url(#linear-gradient-45);
      }

      .cls-51 {
        fill: url(#linear-gradient-46);
      }

      .cls-52 {
        fill: url(#linear-gradient-47);
      }

      .cls-53 {
        fill: url(#linear-gradient-48);
      }

      .cls-54 {
        fill: url(#linear-gradient-49);
      }

      .cls-55 {
        fill: url(#radial-gradient-46);
      }

      .cls-56 {
        fill: url(#radial-gradient-47);
      }

      .cls-57 {
        fill: url(#linear-gradient-50);
      }

      .cls-58 {
        fill: url(#radial-gradient-53);
      }

      .cls-59 {
        fill: url(#linear-gradient-51);
      }

      .cls-60 {
        fill: url(#linear-gradient-52);
      }

      .cls-61 {
        fill: url(#linear-gradient-53);
      }

      .cls-62 {
        fill: url(#linear-gradient-54);
      }

      .cls-63 {
        fill: url(#linear-gradient-55);
      }

      .cls-64 {
        fill: url(#linear-gradient-56);
      }

      .cls-65 {
        fill: url(#linear-gradient-57);
      }

      .cls-66 {
        fill: url(#linear-gradient-58);
      }

      .cls-67 {
        fill: url(#linear-gradient-59);
      }

      .cls-68 {
        fill: url(#radial-gradient-64);
      }

      .cls-69 {
        fill: url(#linear-gradient-60);
      }

      .cls-70 {
        fill: url(#linear-gradient-61);
      }

      .cls-71 {
        fill: url(#linear-gradient-62);
      }

      .cls-72 {
        fill: url(#linear-gradient-63);
      }

      .cls-73 {
        fill: url(#linear-gradient-64);
      }

      .cls-74 {
        fill: url(#linear-gradient-65);
      }

      .cls-75 {
        fill: url(#linear-gradient-66);
      }

      .cls-76 {
        fill: url(#linear-gradient-67);
      }

      .cls-77 {
        fill: url(#linear-gradient-68);
      }

      .cls-78 {
        fill: url(#linear-gradient-69);
      }

      .cls-79 {
        fill: url(#linear-gradient-70);
      }

      .cls-80 {
        fill: url(#linear-gradient-71);
      }

      .cls-81 {
        fill: url(#linear-gradient-72);
      }

      .cls-82 {
        fill: url(#linear-gradient-73);
      }

      .cls-83 {
        fill: url(#linear-gradient-74);
      }

      .cls-84 {
        fill: url(#linear-gradient-75);
      }

      .cls-85 {
        fill: url(#linear-gradient-76);
      }

      .cls-86 {
        fill: url(#linear-gradient-77);
      }

      .cls-87 {
        fill: url(#linear-gradient-78);
      }

      .cls-88 {
        fill: url(#linear-gradient-79);
      }

      .cls-89 {
        fill: url(#linear-gradient-80);
      }

      .cls-90 {
        fill: url(#linear-gradient-81);
      }

      .cls-91 {
        fill: url(#linear-gradient-82);
      }

      .cls-92 {
        fill: url(#linear-gradient-83);
      }

      .cls-93 {
        fill: url(#linear-gradient-84);
      }

      .cls-94 {
        fill: url(#linear-gradient-85);
      }

      .cls-95 {
        fill: url(#radial-gradient-88);
      }

      .cls-96 {
        fill: url(#radial-gradient-89);
      }

      .cls-97 {
        fill: url(#radial-gradient-90);
      }

      .cls-98 {
        fill: url(#radial-gradient-91);
      }
    </style>
    <radialGradient id="radial-gradient" cx="413.58" cy="-119.52" r="312.9" gradientTransform="translate(0.5 -37.5)" gradientUnits="userSpaceOnUse">
      <stop offset="0" stop-color="#b0b0b0"/>
      <stop offset="0.15" stop-color="silver"/>
      <stop offset="0.51" stop-color="#e2e2e2"/>
      <stop offset="0.8" stop-color="#f7f7f7"/>
      <stop offset="1" stop-color="#fff"/>
    </radialGradient>
    <radialGradient id="radial-gradient-2" cx="51.9" cy="417.64" r="438.42" gradientTransform="matrix(1, 0, 0, -1, 0.5, 462.5)" xlink:href="#radial-gradient"/>
    <radialGradient id="radial-gradient-7" cx="51.9" cy="417.64" r="438.42" gradientTransform="matrix(1, 0, 0, -1, 0, 462)" xlink:href="#radial-gradient"/>
    <linearGradient id="linear-gradient" x1="-102.05" y1="221.51" x2="47.66" y2="71.79" gradientTransform="translate(0.5 -37.5)" gradientUnits="userSpaceOnUse">
      <stop offset="0" stop-color="#fbfbfb"/>
      <stop offset="0.42" stop-color="#f5f5f5"/>
      <stop offset="0.99" stop-color="#e4e3e4"/>
      <stop offset="1" stop-color="#e4e3e4"/>
    </linearGradient>
    <linearGradient id="linear-gradient-2" x1="72.72" y1="151.85" x2="222.44" y2="2.13" xlink:href="#linear-gradient"/>
    <linearGradient id="linear-gradient-3" x1="10.56" y1="89.69" x2="160.27" y2="-60.03" xlink:href="#linear-gradient"/>
    <linearGradient id="linear-gradient-4" x1="35.13" y1="114.25" x2="184.84" y2="-35.46" xlink:href="#linear-gradient"/>
    <linearGradient id="linear-gradient-5" x1="65.76" y1="144.9" x2="215.48" y2="-4.82" xlink:href="#linear-gradient"/>
    <linearGradient id="linear-gradient-6" x1="10.13" y1="267.83" x2="159.84" y2="118.12" xlink:href="#linear-gradient"/>
    <linearGradient id="linear-gradient-7" x1="23.2" y1="280.89" x2="172.91" y2="131.19" xlink:href="#linear-gradient"/>
    <linearGradient id="linear-gradient-8" x1="-36.27" y1="221.43" x2="113.44" y2="71.72" xlink:href="#linear-gradient"/>
    <linearGradient id="linear-gradient-9" x1="170.49" y1="183.87" x2="320.2" y2="34.15" xlink:href="#linear-gradient"/>
    <linearGradient id="linear-gradient-10" x1="183.25" y1="196.63" x2="332.97" y2="46.91" xlink:href="#linear-gradient"/>
    <linearGradient id="linear-gradient-11" x1="176.21" y1="189.59" x2="325.93" y2="39.87" xlink:href="#linear-gradient"/>
    <radialGradient id="radial-gradient-20" cx="413.58" cy="-119.52" r="312.9" gradientTransform="translate(0 -38)" xlink:href="#radial-gradient"/>
    <linearGradient id="linear-gradient-12" x1="345.3" y1="114.25" x2="495.02" y2="-35.46" xlink:href="#linear-gradient"/>
    <linearGradient id="linear-gradient-13" x1="320.74" y1="89.69" x2="470.45" y2="-60.03" xlink:href="#linear-gradient"/>
    <linearGradient id="linear-gradient-14" x1="396.65" y1="165.6" x2="546.37" y2="15.89" xlink:href="#linear-gradient"/>
    <linearGradient id="linear-gradient-15" x1="396.16" y1="343.68" x2="545.87" y2="193.97" xlink:href="#linear-gradient"/>
    <linearGradient id="linear-gradient-16" x1="361.26" y1="308.79" x2="510.98" y2="159.08" xlink:href="#linear-gradient"/>
    <linearGradient id="linear-gradient-17" x1="314.97" y1="262.49" x2="464.68" y2="112.78" xlink:href="#linear-gradient"/>
    <linearGradient id="linear-gradient-18" x1="266.7" y1="214.23" x2="416.42" y2="64.51" xlink:href="#linear-gradient"/>
    <linearGradient id="linear-gradient-19" x1="332.15" y1="279.68" x2="481.86" y2="129.96" xlink:href="#linear-gradient"/>
    <linearGradient id="linear-gradient-20" x1="339.25" y1="286.78" x2="488.96" y2="137.06" xlink:href="#linear-gradient"/>
    <linearGradient id="linear-gradient-21" x1="314.59" y1="262.12" x2="464.31" y2="112.41" xlink:href="#linear-gradient"/>
    <linearGradient id="linear-gradient-22" x1="400.7" y1="348.23" x2="550.42" y2="198.51" xlink:href="#linear-gradient"/>
    <linearGradient id="linear-gradient-23" x1="272.76" y1="220.29" x2="422.47" y2="70.57" xlink:href="#linear-gradient"/>
    <linearGradient id="linear-gradient-24" x1="297.02" y1="244.55" x2="446.74" y2="94.84" xlink:href="#linear-gradient"/>
    <linearGradient id="linear-gradient-25" x1="1255.07" y1="272.06" x2="1404.78" y2="122.34" xlink:href="#linear-gradient"/>
    <linearGradient id="linear-gradient-26" x1="1239.07" y1="256.07" x2="1388.79" y2="106.35" xlink:href="#linear-gradient"/>
    <linearGradient id="linear-gradient-27" x1="-102.05" y1="400.7" x2="47.66" y2="250.98" xlink:href="#linear-gradient"/>
    <linearGradient id="linear-gradient-28" x1="-106.59" y1="574.74" x2="43.13" y2="425.03" xlink:href="#linear-gradient"/>
    <linearGradient id="linear-gradient-29" x1="-36.27" y1="400.63" x2="113.44" y2="250.91" xlink:href="#linear-gradient"/>
    <linearGradient id="linear-gradient-30" x1="23.19" y1="460.09" x2="172.9" y2="310.37" xlink:href="#linear-gradient"/>
    <linearGradient id="linear-gradient-31" x1="10.13" y1="447.03" x2="159.84" y2="297.31" xlink:href="#linear-gradient"/>
    <linearGradient id="linear-gradient-32" x1="-12.64" y1="602.84" x2="137.08" y2="453.12" xlink:href="#linear-gradient"/>
    <linearGradient id="linear-gradient-33" x1="-42.79" y1="572.69" x2="106.93" y2="422.97" xlink:href="#linear-gradient"/>
    <linearGradient id="linear-gradient-34" x1="178.28" y1="370.85" x2="327.99" y2="221.13" xlink:href="#linear-gradient"/>
    <linearGradient id="linear-gradient-35" x1="171.64" y1="542.8" x2="321.36" y2="393.08" xlink:href="#linear-gradient"/>
    <linearGradient id="linear-gradient-36" x1="350.95" y1="477.67" x2="500.66" y2="327.95" xlink:href="#linear-gradient"/>
    <linearGradient id="linear-gradient-37" x1="365.9" y1="492.62" x2="515.62" y2="342.91" xlink:href="#linear-gradient"/>
    <linearGradient id="linear-gradient-38" x1="308.54" y1="435.26" x2="458.25" y2="285.54" xlink:href="#linear-gradient"/>
    <linearGradient id="linear-gradient-39" x1="327.11" y1="453.83" x2="476.82" y2="304.11" xlink:href="#linear-gradient"/>
    <linearGradient id="linear-gradient-40" x1="397.67" y1="524.39" x2="547.39" y2="374.68" xlink:href="#linear-gradient"/>
    <linearGradient id="linear-gradient-41" x1="333.37" y1="460.09" x2="483.08" y2="310.37" xlink:href="#linear-gradient"/>
    <linearGradient id="linear-gradient-42" x1="942.47" y1="627.41" x2="1092.18" y2="477.69" xlink:href="#linear-gradient"/>
    <linearGradient id="linear-gradient-43" x1="917.9" y1="602.84" x2="1067.61" y2="453.12" xlink:href="#linear-gradient"/>
    <linearGradient id="linear-gradient-44" x1="1108.81" y1="370.85" x2="1258.53" y2="221.13" xlink:href="#linear-gradient"/>
    <linearGradient id="linear-gradient-45" x1="1102.18" y1="542.8" x2="1251.9" y2="393.08" xlink:href="#linear-gradient"/>
    <linearGradient id="linear-gradient-46" x1="1255.07" y1="451.25" x2="1404.78" y2="301.54" xlink:href="#linear-gradient"/>
    <linearGradient id="linear-gradient-47" x1="1239.07" y1="435.26" x2="1388.79" y2="285.54" xlink:href="#linear-gradient"/>
    <linearGradient id="linear-gradient-48" x1="1217.06" y1="591.83" x2="1366.78" y2="442.11" xlink:href="#linear-gradient"/>
    <linearGradient id="linear-gradient-49" x1="1197.92" y1="572.69" x2="1347.64" y2="422.97" xlink:href="#linear-gradient"/>
    <radialGradient id="radial-gradient-46" cx="949.1" cy="-118.69" r="312.9" xlink:href="#radial-gradient"/>
    <radialGradient id="radial-gradient-47" cx="587.42" cy="416.81" r="438.42" gradientTransform="matrix(1, 0, 0, -1, 0.5, 462.5)" xlink:href="#radial-gradient"/>
    <linearGradient id="linear-gradient-50" x1="608.24" y1="152.68" x2="757.96" y2="2.96" xlink:href="#linear-gradient"/>
    <radialGradient id="radial-gradient-53" cx="587.42" cy="416.81" r="438.42" gradientTransform="matrix(1, 0, 0, -1, 0, 462)" xlink:href="#radial-gradient"/>
    <linearGradient id="linear-gradient-51" x1="546.08" y1="90.52" x2="695.79" y2="-59.2" xlink:href="#linear-gradient"/>
    <linearGradient id="linear-gradient-52" x1="570.65" y1="115.09" x2="720.36" y2="-34.63" xlink:href="#linear-gradient"/>
    <linearGradient id="linear-gradient-53" x1="601.28" y1="145.73" x2="751" y2="-3.99" xlink:href="#linear-gradient"/>
    <linearGradient id="linear-gradient-54" x1="545.65" y1="268.67" x2="695.36" y2="118.95" xlink:href="#linear-gradient"/>
    <linearGradient id="linear-gradient-55" x1="558.72" y1="281.73" x2="708.43" y2="132.02" xlink:href="#linear-gradient"/>
    <linearGradient id="linear-gradient-56" x1="499.25" y1="222.26" x2="648.96" y2="72.55" xlink:href="#linear-gradient"/>
    <linearGradient id="linear-gradient-57" x1="706.01" y1="184.71" x2="855.72" y2="34.99" xlink:href="#linear-gradient"/>
    <linearGradient id="linear-gradient-58" x1="718.77" y1="197.47" x2="868.49" y2="47.75" xlink:href="#linear-gradient"/>
    <linearGradient id="linear-gradient-59" x1="711.73" y1="190.42" x2="861.45" y2="40.7" xlink:href="#linear-gradient"/>
    <radialGradient id="radial-gradient-64" cx="949.1" cy="-118.69" r="312.9" gradientTransform="translate(0 -38)" xlink:href="#radial-gradient"/>
    <linearGradient id="linear-gradient-60" x1="880.82" y1="115.09" x2="1030.54" y2="-34.62" xlink:href="#linear-gradient"/>
    <linearGradient id="linear-gradient-61" x1="856.26" y1="90.52" x2="1005.97" y2="-59.2" xlink:href="#linear-gradient"/>
    <linearGradient id="linear-gradient-62" x1="932.17" y1="166.44" x2="1081.89" y2="16.73" xlink:href="#linear-gradient"/>
    <linearGradient id="linear-gradient-63" x1="931.68" y1="344.51" x2="1081.39" y2="194.8" xlink:href="#linear-gradient"/>
    <linearGradient id="linear-gradient-64" x1="896.78" y1="309.63" x2="1046.5" y2="159.92" xlink:href="#linear-gradient"/>
    <linearGradient id="linear-gradient-65" x1="850.49" y1="263.33" x2="1000.2" y2="113.61" xlink:href="#linear-gradient"/>
    <linearGradient id="linear-gradient-66" x1="802.22" y1="215.07" x2="951.94" y2="65.35" xlink:href="#linear-gradient"/>
    <linearGradient id="linear-gradient-67" x1="867.67" y1="280.52" x2="1017.38" y2="130.8" xlink:href="#linear-gradient"/>
    <linearGradient id="linear-gradient-68" x1="874.77" y1="287.61" x2="1024.48" y2="137.89" xlink:href="#linear-gradient"/>
    <linearGradient id="linear-gradient-69" x1="850.11" y1="262.96" x2="999.83" y2="113.25" xlink:href="#linear-gradient"/>
    <linearGradient id="linear-gradient-70" x1="936.22" y1="349.07" x2="1085.94" y2="199.35" xlink:href="#linear-gradient"/>
    <linearGradient id="linear-gradient-71" x1="808.28" y1="221.12" x2="957.99" y2="71.4" xlink:href="#linear-gradient"/>
    <linearGradient id="linear-gradient-72" x1="832.54" y1="245.39" x2="982.26" y2="95.68" xlink:href="#linear-gradient"/>
    <linearGradient id="linear-gradient-73" x1="499.25" y1="401.46" x2="648.96" y2="251.74" xlink:href="#linear-gradient"/>
    <linearGradient id="linear-gradient-74" x1="558.71" y1="460.93" x2="708.42" y2="311.21" xlink:href="#linear-gradient"/>
    <linearGradient id="linear-gradient-75" x1="545.65" y1="447.86" x2="695.36" y2="298.14" xlink:href="#linear-gradient"/>
    <linearGradient id="linear-gradient-76" x1="522.88" y1="603.68" x2="672.6" y2="453.96" xlink:href="#linear-gradient"/>
    <linearGradient id="linear-gradient-77" x1="492.73" y1="573.52" x2="642.45" y2="423.8" xlink:href="#linear-gradient"/>
    <linearGradient id="linear-gradient-78" x1="713.8" y1="371.68" x2="863.51" y2="221.96" xlink:href="#linear-gradient"/>
    <linearGradient id="linear-gradient-79" x1="707.16" y1="543.63" x2="856.88" y2="393.91" xlink:href="#linear-gradient"/>
    <linearGradient id="linear-gradient-80" x1="886.47" y1="478.51" x2="1036.18" y2="328.79" xlink:href="#linear-gradient"/>
    <linearGradient id="linear-gradient-81" x1="901.42" y1="493.46" x2="1051.14" y2="343.75" xlink:href="#linear-gradient"/>
    <linearGradient id="linear-gradient-82" x1="844.06" y1="436.09" x2="993.77" y2="286.37" xlink:href="#linear-gradient"/>
    <linearGradient id="linear-gradient-83" x1="862.63" y1="454.67" x2="1012.34" y2="304.95" xlink:href="#linear-gradient"/>
    <linearGradient id="linear-gradient-84" x1="933.19" y1="525.23" x2="1082.91" y2="375.52" xlink:href="#linear-gradient"/>
    <linearGradient id="linear-gradient-85" x1="868.89" y1="460.92" x2="1018.6" y2="311.2" xlink:href="#linear-gradient"/>
    <radialGradient id="radial-gradient-88" cx="534.26" cy="190.48" r="125.1" gradientTransform="matrix(1, 0, 0, 1, 0, 0)" xlink:href="#radial-gradient"/>
    <radialGradient id="radial-gradient-89" cx="540.06" cy="428.78" r="201.03" gradientTransform="matrix(1, 0, 0, 1, 0, 0)" xlink:href="#radial-gradient"/>
    <radialGradient id="radial-gradient-90" cx="1083.08" cy="388.42" r="91.68" gradientTransform="matrix(1, 0, 0, 1, 0, 0)" xlink:href="#radial-gradient"/>
    <radialGradient id="radial-gradient-91" cx="1083.62" cy="417.98" r="247.74" gradientTransform="matrix(1, 0, 0, 1, 0, 0)" xlink:href="#radial-gradient"/>
  </defs>
  <title>2</title>
  <g>
    <path class="cls-1" d="M196.67,4l2-3.51h-8L190,1.73Q193.32,2.84,196.67,4Z"/>
    <path class="cls-2" d="M489.07,378.64,475,403l-19.27,33.37H356.41l-49.65-86,49.65-86h99.31l17.45,30.22A435.11,435.11,0,0,0,458.5,252.5l-2.73,4.72H356.41l-49.65-86,16.56-28.72q-3.39-1-6.75-2.13L300.64,168H201.32L151.67,82l22.2-38.46c-1.59-1.91-3.16-3.83-4.71-5.78l-23.61,40.9H46.23L1.13.5H.5V13.34L40.11,82,.5,150.57V164.4L46.23,85.18h99.32l49.65,86-49.65,86H46.23L.5,178V192.5l39.61,68.62L.5,329.76v13.83l45.73-79.21h99.32l49.65,86-49.65,86H46.23L.5,357.18v13.93l39.61,68.62-12,20.77h8L46.24,443h99.32l10.11,17.54h8l-12-20.77,49.65-86h99.32l49.65,86-12,20.77H488.8q2-20.91,2-42.36Q490.83,398.17,489.07,378.64ZM201.32,347.15h0l-49.65-86,49.65-86h99.32l49.65,86-49.65,86Z"/>
    <polygon class="cls-3" points="1216.56 89.65 1266.21 175.66 1328.77 175.66 1328.77 173.2 1267.63 173.2 1219.4 89.65 1267.63 6.11 1328.77 6.11 1328.77 3.64 1266.21 3.64 1216.56 89.65"/>
    <path class="cls-1" d="M344.8,91.5l-28.23,48.9q3.36,1.09,6.75,2.13L350,96.26C348.3,94.63,346.56,93,344.8,91.5Z"/>
    <path class="cls-2" d="M344.8,91.5l-28.23,48.9q3.36,1.09,6.75,2.13L350,96.26C348.3,94.63,346.56,93,344.8,91.5Z"/>
    <path class="cls-1" d="M189.94,1.73l-20.78,36c1.55,2,3.12,3.87,4.71,5.78L196.67,4C194.43,3.24,192.19,2.48,189.94,1.73Z"/>
    <path class="cls-2" d="M189.94,1.73l-20.78,36c1.55,2,3.12,3.87,4.71,5.78L196.67,4C194.43,3.24,192.19,2.48,189.94,1.73Z"/>
    <polygon class="cls-4" points="0.5 18.27 0.5 145.64 37.27 81.95 0.5 18.27"/>
    <polygon class="cls-5" points="0.5 18.27 0.5 145.64 37.27 81.95 0.5 18.27"/>
    <polygon class="cls-3" points="0.5 13.34 0.5 18.27 37.27 81.95 0.5 145.64 0.5 150.57 40.11 81.95 0.5 13.34"/>
    <path class="cls-1" d="M187.81.5h-1.66l1.4.44Z"/>
    <path class="cls-6" d="M187.81.5h-1.66l1.4.44Z"/>
    <polygon class="cls-4" points="46.23 78.62 1.13 0.5 1.13 0.5 46.23 78.62 46.23 78.62"/>
    <polygon class="cls-7" points="46.23 78.62 1.13 0.5 1.13 0.5 46.23 78.62 46.23 78.62"/>
    <path class="cls-2" d="M144.13,76.16,167.5,35.64A312.9,312.9,0,0,1,143.68.5H4L47.66,76.16Z"/>
    <path class="cls-8" d="M144.13,76.16,167.5,35.64A312.9,312.9,0,0,1,143.68.5H4L47.66,76.16Z"/>
    <path class="cls-1" d="M187.55.94,186.15.5H143.68A312.9,312.9,0,0,0,167.5,35.64Z"/>
    <path class="cls-2" d="M187.55.94,186.15.5H143.68A312.9,312.9,0,0,0,167.5,35.64Z"/>
    <path class="cls-9" d="M187.55.94,186.15.5H143.68A312.9,312.9,0,0,0,167.5,35.64Z"/>
    <polygon class="cls-3" points="145.55 78.62 169.16 37.71 189.94 1.73 190.65 0.5 187.81 0.5 187.55 0.95 167.52 35.64 144.13 76.16 47.66 76.16 3.97 0.5 1.13 0.5 46.23 78.62 145.55 78.62"/>
    <polygon class="cls-4" points="46.23 257.2 0.5 177.99 0.5 177.99 46.23 257.2 46.23 257.2"/>
    <polygon class="cls-10" points="46.23 257.2 0.5 177.99 0.5 177.99 46.23 257.2 46.23 257.2"/>
    <polygon class="cls-4" points="144.13 254.74 192.36 171.19 144.13 87.65 47.66 87.65 0.5 169.32 0.5 173.06 47.66 254.74 144.13 254.74"/>
    <polygon class="cls-11" points="144.13 254.74 192.36 171.19 144.13 87.65 47.66 87.65 0.5 169.32 0.5 173.06 47.66 254.74 144.13 254.74"/>
    <polygon class="cls-4" points="46.23 85.18 0.5 164.4 0.5 164.4 46.23 85.18 46.23 85.18"/>
    <polygon class="cls-12" points="46.23 85.18 0.5 164.4 0.5 164.4 46.23 85.18 46.23 85.18"/>
    <polygon class="cls-3" points="145.55 257.2 195.2 171.19 145.55 85.18 46.23 85.18 0.5 164.4 0.5 169.32 47.66 87.65 144.13 87.65 192.36 171.19 144.13 254.74 47.66 254.74 0.5 173.06 0.5 177.99 46.23 257.2 145.55 257.2"/>
    <path class="cls-1" d="M342.92,89.79,347.5,82,300.42.5H201.5L199,4.84A438.16,438.16,0,0,1,342.92,89.79Z"/>
    <path class="cls-13" d="M342.92,89.79,347.5,82,300.42.5H201.5L199,4.84A438.16,438.16,0,0,1,342.92,89.79Z"/>
    <path class="cls-2" d="M175.56,45.5,154.5,82l48.24,83.55h96.47l15-25.91A313.46,313.46,0,0,1,175.56,45.5Z"/>
    <path class="cls-14" d="M175.56,45.5,154.5,82l48.24,83.55h96.47l15-25.91A313.46,313.46,0,0,1,175.56,45.5Z"/>
    <path class="cls-1" d="M175.56,45.5a313.5,313.5,0,0,0,138.61,94.1l28.75-49.8A438,438,0,0,0,199,4.8Z"/>
    <path class="cls-2" d="M175.56,45.5a313.5,313.5,0,0,0,138.61,94.1l28.75-49.8A438,438,0,0,0,199,4.8Z"/>
    <path class="cls-15" d="M175.56,45.5a313.5,313.5,0,0,0,138.61,94.1l28.75-49.8A438,438,0,0,0,199,4.8Z"/>
    <polygon class="cls-3" points="173.87 43.49 151.67 81.95 201.32 167.96 201.32 167.96 300.64 167.96 316.57 140.37 344.8 91.47 350.29 81.95 303.26 0.5 300.42 0.5 347.45 81.95 342.93 89.79 314.17 139.59 299.21 165.5 202.74 165.5 154.51 81.95 175.56 45.49 199.03 4.84 201.54 0.5 198.69 0.5 196.67 4.01 173.87 43.49"/>
    <polygon class="cls-16" points="454.3 76.16 497.99 0.5 314.15 0.5 357.83 76.16 454.3 76.16"/>
    <polygon class="cls-17" points="454.3 76.16 497.99 0.5 314.15 0.5 357.83 76.16 454.3 76.16"/>
    <polygon class="cls-16" points="311.31 0.5 311.31 0.5 356.41 78.62 311.31 0.5"/>
    <polygon class="cls-18" points="311.31 0.5 311.31 0.5 356.41 78.62 311.31 0.5"/>
    <polygon class="cls-16" points="455.73 78.62 480.55 35.62 455.73 78.62 455.73 78.62"/>
    <polygon class="cls-19" points="455.73 78.62 480.55 35.62 455.73 78.62 455.73 78.62"/>
    <polygon class="cls-3" points="455.73 78.62 480.55 35.62 500.83 0.5 497.99 0.5 454.3 76.16 357.83 76.16 314.15 0.5 311.31 0.5 356.41 78.62 455.73 78.62"/>
    <polygon class="cls-20" points="458.45 252.48 480.55 214.19 458.45 252.48 458.45 252.48"/>
    <path class="cls-21" d="M488.5,146.94A313.41,313.41,0,0,1,414,155.88c-3.5,0-7-.08-10.45-.19a438.34,438.34,0,0,1,53.63,93.93l45.28-78.43Z"/>
    <path class="cls-1" d="M403.63,155.69c3.47.11,6.95.19,10.45.19a313.08,313.08,0,0,0,74.42-8.94L454.3,87.65H357.83L351.89,98A440.88,440.88,0,0,1,403.63,155.69Z"/>
    <path class="cls-22" d="M403.63,155.69c3.47.11,6.95.19,10.45.19a313.08,313.08,0,0,0,74.42-8.94L454.3,87.65H357.83L351.89,98A440.88,440.88,0,0,1,403.63,155.69Z"/>
    <polygon class="cls-16" points="356.41 85.18 350.04 96.23 350.04 96.23 356.41 85.18"/>
    <polygon class="cls-23" points="356.41 85.18 350.04 96.23 350.04 96.23 356.41 85.18"/>
    <polygon class="cls-16" points="455.73 85.18 455.73 85.18 480.55 128.19 455.73 85.18"/>
    <polygon class="cls-24" points="455.73 85.18 455.73 85.18 480.55 128.19 455.73 85.18"/>
    <path class="cls-2" d="M325.75,143.22l-16.15,28,48.23,83.55H454.3l3-5.12a438.34,438.34,0,0,0-53.63-93.93A312.72,312.72,0,0,1,325.75,143.22Z"/>
    <path class="cls-25" d="M325.75,143.22l-16.15,28,48.23,83.55H454.3l3-5.12a438.34,438.34,0,0,0-53.63-93.93A312.72,312.72,0,0,1,325.75,143.22Z"/>
    <polygon class="cls-4" points="323.32 142.5 323.32 142.5 306.76 171.19 356.41 257.2 306.76 171.19 323.32 142.5"/>
    <polygon class="cls-26" points="323.32 142.5 323.32 142.5 306.76 171.19 356.41 257.2 306.76 171.19 323.32 142.5"/>
    <polygon class="cls-4" points="455.73 257.2 455.73 257.2 458.45 252.48 458.45 252.48 455.73 257.2"/>
    <polygon class="cls-27" points="455.73 257.2 455.73 257.2 458.45 252.48 458.45 252.48 455.73 257.2"/>
    <polygon class="cls-16" points="350.04 96.23 350.04 96.23 323.32 142.5 323.32 142.5 350.04 96.23"/>
    <polygon class="cls-4" points="350.04 96.23 350.04 96.23 323.32 142.5 323.32 142.5 350.04 96.23"/>
    <polygon class="cls-28" points="350.04 96.23 350.04 96.23 323.32 142.5 323.32 142.5 350.04 96.23"/>
    <path class="cls-1" d="M351.89,98l-26.14,45.27a312.45,312.45,0,0,0,77.88,12.47A440.88,440.88,0,0,0,351.89,98Z"/>
    <path class="cls-2" d="M351.89,98l-26.14,45.27a312.45,312.45,0,0,0,77.88,12.47A440.88,440.88,0,0,0,351.89,98Z"/>
    <path class="cls-29" d="M351.89,98l-26.14,45.27a312.45,312.45,0,0,0,77.88,12.47A440.88,440.88,0,0,0,351.89,98Z"/>
    <path class="cls-3" d="M455.72,85.18H356.41l-6.37,11L323.32,142.5l-16.56,28.69,49.65,86h99.31l2.78-4.69,22.1-38.28,24.83-43-14.35-24.85L480.6,128.22ZM454.3,254.74H357.83L309.6,171.19l16.15-28,26.14-45.27,5.94-10.3H454.3l34.2,59.32,14,24.25-45.28,78.43Z"/>
    <polygon class="cls-30" points="1240.14 171.19 1288.37 254.74 1349.5 254.74 1349.5 87.65 1288.37 87.65 1240.14 171.19"/>
    <polygon class="cls-31" points="1286.95 85.18 1286.95 85.18 1237.29 171.19 1286.95 257.2 1286.95 257.2 1237.29 171.19 1286.95 85.18"/>
    <polygon class="cls-3" points="1237.29 171.19 1286.95 257.2 1349.5 257.2 1349.5 254.74 1288.37 254.74 1240.14 171.19 1288.37 87.65 1349.5 87.65 1349.5 85.18 1286.95 85.18 1237.29 171.19"/>
    <polygon class="cls-4" points="0.5 197.46 0.5 324.84 37.27 261.15 0.5 197.46"/>
    <polygon class="cls-32" points="0.5 197.46 0.5 324.84 37.27 261.15 0.5 197.46"/>
    <polygon class="cls-3" points="0.5 192.53 0.5 197.46 37.27 261.15 0.5 324.84 0.5 329.76 40.11 261.15 0.5 192.53"/>
    <polygon class="cls-4" points="0.5 376.04 0.5 460.5 25.28 460.5 37.27 439.73 0.5 376.04"/>
    <polygon class="cls-33" points="0.5 376.04 0.5 460.5 25.28 460.5 37.27 439.73 0.5 376.04"/>
    <polygon class="cls-3" points="0.5 371.11 0.5 376.04 37.27 439.73 25.28 460.5 28.12 460.5 40.11 439.73 0.5 371.11"/>
    <polygon class="cls-4" points="46.23 264.38 0.5 343.59 0.5 343.59 46.23 264.38 46.23 264.38"/>
    <polygon class="cls-34" points="46.23 264.38 0.5 343.59 0.5 343.59 46.23 264.38 46.23 264.38"/>
    <polygon class="cls-4" points="144.13 433.93 192.36 350.39 144.13 266.84 47.66 266.84 0.5 348.52 0.5 352.25 47.66 433.93 144.13 433.93"/>
    <polygon class="cls-35" points="144.13 433.93 192.36 350.39 144.13 266.84 47.66 266.84 0.5 348.52 0.5 352.25 47.66 433.93 144.13 433.93"/>
    <polygon class="cls-4" points="46.23 436.39 0.5 357.18 0.5 357.18 46.23 436.39 46.23 436.39"/>
    <polygon class="cls-36" points="46.23 436.39 0.5 357.18 0.5 357.18 46.23 436.39 46.23 436.39"/>
    <polygon class="cls-3" points="145.55 436.39 195.2 350.39 145.55 264.38 46.23 264.38 0.5 343.59 0.5 348.52 47.66 266.84 144.13 266.84 192.36 350.39 144.13 433.93 47.66 433.93 0.5 352.25 0.5 357.18 46.23 436.39 145.55 436.39"/>
    <polygon class="cls-4" points="47.66 445.42 38.95 460.5 152.83 460.5 144.13 445.42 47.66 445.42"/>
    <polygon class="cls-37" points="47.66 445.42 38.95 460.5 152.83 460.5 144.13 445.42 47.66 445.42"/>
    <polygon class="cls-4" points="46.23 442.96 36.1 460.5 36.1 460.5 46.23 442.96 46.23 442.96"/>
    <polygon class="cls-38" points="46.23 442.96 36.1 460.5 36.1 460.5 46.23 442.96 46.23 442.96"/>
    <polygon class="cls-3" points="46.23 442.96 36.1 460.5 38.95 460.5 47.66 445.42 144.13 445.42 152.83 460.5 155.68 460.5 145.55 442.96 46.23 442.96"/>
    <polygon class="cls-4" points="299.21 177.6 202.74 177.6 154.51 261.15 202.74 344.69 299.21 344.69 347.45 261.15 299.21 177.6"/>
    <polygon class="cls-39" points="299.21 177.6 202.74 177.6 154.51 261.15 202.74 344.69 299.21 344.69 347.45 261.15 299.21 177.6"/>
    <path class="cls-3" d="M300.64,175.14H201.32l-49.65,86,49.65,86h99.32l49.65-86Zm-1.43,169.55H202.74L154.5,261.15l48.23-83.55H299.2l48.3,83.55Z"/>
    <polygon class="cls-4" points="299.21 356.18 202.74 356.18 154.51 439.73 166.5 460.5 335.45 460.5 347.45 439.73 299.21 356.18"/>
    <polygon class="cls-40" points="299.21 356.18 202.74 356.18 154.51 439.73 166.5 460.5 335.45 460.5 347.45 439.73 299.21 356.18"/>
    <polygon class="cls-3" points="300.64 353.72 201.32 353.72 201.32 353.72 151.67 439.73 163.66 460.5 166.5 460.5 154.51 439.73 202.74 356.18 299.21 356.18 347.45 439.73 335.45 460.5 338.3 460.5 350.29 439.73 300.64 353.72"/>
    <polygon class="cls-41" points="490.63 324.83 473.17 294.6 473.17 294.6 490.63 324.83"/>
    <path class="cls-42" d="M502.5,350.39l-26.67-46.2a436.91,436.91,0,0,1,12.8,70.22Z"/>
    <polygon class="cls-4" points="356.41 264.38 306.76 350.38 356.41 436.39 306.76 350.39 356.41 264.38"/>
    <polygon class="cls-43" points="356.41 264.38 306.76 350.38 356.41 436.39 306.76 350.39 356.41 264.38"/>
    <polygon class="cls-4" points="455.73 264.38 473.17 294.6 473.17 294.6 455.73 264.38 455.73 264.38"/>
    <polygon class="cls-44" points="455.73 264.38 473.17 294.6 473.17 294.6 455.73 264.38 455.73 264.38"/>
    <polygon class="cls-4" points="455.73 436.39 474.99 403.02 455.73 436.39 455.73 436.39"/>
    <polygon class="cls-45" points="455.73 436.39 474.99 403.02 455.73 436.39 455.73 436.39"/>
    <path class="cls-2" d="M475.87,304.19,454.3,266.84H357.83L309.6,350.39l48.23,83.54H454.3l34.37-59.52A436.91,436.91,0,0,0,475.87,304.19Z"/>
    <path class="cls-46" d="M475.87,304.19,454.3,266.84H357.83L309.6,350.39l48.23,83.54H454.3l34.37-59.52A436.91,436.91,0,0,0,475.87,304.19Z"/>
    <path class="cls-3" d="M455.72,264.38H356.41l-49.65,86,49.65,86h99.31L475,403l14.08-24.38,16.31-28.25-14.75-25.56L473.17,294.6ZM454.3,433.93H357.83L309.6,350.39l48.23-83.55H454.3l21.57,37.35,26.63,46.2-13.87,24Z"/>
    <polygon class="cls-47" points="1076.08 442.96 1086.21 460.5 1086.21 460.5 1076.08 442.96 1076.08 442.96"/>
    <polygon class="cls-48" points="978.19 445.42 969.48 460.5 1083.37 460.5 1074.66 445.42 978.19 445.42"/>
    <polygon class="cls-3" points="976.77 442.96 976.77 442.96 966.64 460.5 969.48 460.5 978.19 445.42 1074.66 445.42 1083.37 460.5 1086.21 460.5 1076.08 442.96 976.77 442.96"/>
    <polygon class="cls-49" points="1133.28 344.69 1229.75 344.69 1277.99 261.15 1229.75 177.6 1133.28 177.6 1085.05 261.15 1133.28 344.69"/>
    <path class="cls-3" d="M1131.86,347.15h99.31l49.66-86-49.66-86h-99.31l-49.66,86,49.66,86Zm1.42-169.55h96.47L1278,261.15l-48.24,83.54h-96.47l-48.23-83.54Z"/>
    <path class="cls-3" d="M1066.72,175.79H1166l49.66-86L1166,3.79h-99.31l-49.66,86Zm1.42-169.55h96.47l48.24,83.55-48.24,83.54h-96.47l-48.23-83.54Z"/>
    <polygon class="cls-50" points="1229.75 356.18 1133.28 356.18 1085.05 439.73 1097.04 460.5 1265.99 460.5 1277.99 439.73 1229.75 356.18"/>
    <polygon class="cls-3" points="1231.17 353.72 1231.17 353.72 1131.86 353.72 1131.86 353.72 1082.2 439.73 1094.2 460.5 1097.04 460.5 1085.05 439.73 1133.28 356.18 1229.75 356.18 1277.99 439.73 1265.99 460.5 1268.83 460.5 1280.83 439.73 1231.17 353.72"/>
    <polygon class="cls-51" points="1240.14 350.38 1288.37 433.93 1349.5 433.93 1349.5 266.84 1288.37 266.84 1240.14 350.38"/>
    <polygon class="cls-52" points="1286.95 264.38 1286.95 264.38 1237.29 350.38 1286.95 436.39 1286.95 436.39 1237.29 350.38 1286.95 264.38"/>
    <polygon class="cls-3" points="1237.29 350.38 1286.95 436.39 1349.5 436.39 1349.5 433.93 1288.37 433.93 1240.14 350.38 1288.37 266.84 1349.5 266.84 1349.5 264.38 1286.95 264.38 1237.29 350.38"/>
    <polygon class="cls-53" points="1279.66 460.5 1349.5 460.5 1349.5 445.42 1288.37 445.42 1279.66 460.5"/>
    <polygon class="cls-54" points="1286.95 442.96 1276.82 460.5 1276.82 460.5 1286.95 442.96 1286.95 442.96"/>
    <polygon class="cls-3" points="1276.82 460.5 1279.66 460.5 1288.37 445.42 1349.5 445.42 1349.5 442.96 1286.95 442.96 1276.82 460.5"/>
  </g>
  <g>
    <path class="cls-55" d="M732.19,4.84l2-3.51h-8l-.71,1.23Q728.84,3.67,732.19,4.84Z"/>
    <path class="cls-56" d="M1024.59,379.48l-14.08,24.38-19.27,33.37H891.93l-49.65-86,49.65-86h99.31l17.45,30.22A435.3,435.3,0,0,0,994,253.33l-2.73,4.73H891.93l-49.65-86,16.56-28.73q-3.39-1-6.75-2.13l-15.93,27.59H736.84l-49.65-86,22.2-38.46q-2.39-2.86-4.71-5.77l-23.61,40.9H581.75L536.65,1.33H536V14.17l39.61,68.61L536,151.41v13.82L581.75,86h99.32l49.65,86-49.65,86H581.75L536,178.83v14.5L575.63,262,536,330.6v13.82l45.73-79.2h99.32l49.65,86-49.65,86H581.75L536,358v13.93l39.61,68.62-12,20.77h8l10.12-17.54h99.32l10.11,17.54h8l-12-20.76,49.65-86h99.32l49.65,86-12,20.76h150.5q2-20.91,2-42.35Q1026.35,399,1024.59,379.48ZM736.84,348h0l-49.65-86,49.65-86h99.32l49.65,86-49.65,86Z"/>
    <path class="cls-55" d="M880.32,92.33l-28.23,48.9q3.36,1.1,6.75,2.13l26.72-46.27C883.82,95.46,882.08,93.88,880.32,92.33Z"/>
    <path class="cls-56" d="M880.32,92.33l-28.23,48.9q3.36,1.1,6.75,2.13l26.72-46.27C883.82,95.46,882.08,93.88,880.32,92.33Z"/>
    <path class="cls-55" d="M725.46,2.56l-20.78,36c1.55,2,3.12,3.87,4.71,5.78l22.8-39.48Q728.83,3.69,725.46,2.56Z"/>
    <path class="cls-56" d="M725.46,2.56l-20.78,36c1.55,2,3.12,3.87,4.71,5.78l22.8-39.48Q728.83,3.69,725.46,2.56Z"/>
    <path class="cls-55" d="M723.33,1.33h-1.66l1.4.44Z"/>
    <path class="cls-57" d="M723.33,1.33h-1.66l1.4.44Z"/>
    <polygon class="cls-58" points="581.75 79.45 536.65 1.33 536.65 1.33 581.75 79.45 581.75 79.45"/>
    <polygon class="cls-59" points="581.75 79.45 536.65 1.33 536.65 1.33 581.75 79.45 581.75 79.45"/>
    <path class="cls-56" d="M679.65,77,703,36.47A312.9,312.9,0,0,1,679.2,1.33H539.49L583.18,77Z"/>
    <path class="cls-60" d="M679.65,77,703,36.47A312.9,312.9,0,0,1,679.2,1.33H539.49L583.18,77Z"/>
    <path class="cls-55" d="M723.07,1.77l-1.4-.44H679.2A312.9,312.9,0,0,0,703,36.47Z"/>
    <path class="cls-56" d="M723.07,1.77l-1.4-.44H679.2A312.9,312.9,0,0,0,703,36.47Z"/>
    <path class="cls-61" d="M723.07,1.77l-1.4-.44H679.2A312.9,312.9,0,0,0,703,36.47Z"/>
    <polygon class="cls-3" points="681.07 79.45 704.68 38.55 725.46 2.56 726.17 1.33 723.33 1.33 723.07 1.78 703.04 36.48 679.65 77 583.18 77 539.49 1.33 536.65 1.33 581.75 79.45 681.07 79.45"/>
    <polygon class="cls-58" points="581.75 258.04 536.02 178.82 536.02 178.82 581.75 258.04 581.75 258.04"/>
    <polygon class="cls-62" points="581.75 258.04 536.02 178.82 536.02 178.82 581.75 258.04 581.75 258.04"/>
    <polygon class="cls-58" points="679.65 255.57 727.88 172.03 679.65 88.48 583.18 88.48 536.02 170.16 536.02 173.9 583.18 255.57 679.65 255.57"/>
    <polygon class="cls-63" points="679.65 255.57 727.88 172.03 679.65 88.48 583.18 88.48 536.02 170.16 536.02 173.9 583.18 255.57 679.65 255.57"/>
    <polygon class="cls-58" points="581.75 86.02 536.02 165.24 536.02 165.24 581.75 86.02 581.75 86.02"/>
    <polygon class="cls-64" points="581.75 86.02 536.02 165.24 536.02 165.24 581.75 86.02 581.75 86.02"/>
    <polygon class="cls-3" points="681.07 258.04 730.72 172.03 681.07 86.02 581.75 86.02 536.02 165.24 536.02 170.16 583.18 88.48 679.65 88.48 727.88 172.03 679.65 255.57 583.18 255.57 536.02 173.9 536.02 178.82 581.75 258.04 681.07 258.04"/>
    <path class="cls-55" d="M878.44,90.63,883,82.78,835.94,1.33H737l-2.51,4.34A438.19,438.19,0,0,1,878.44,90.63Z"/>
    <path class="cls-65" d="M878.44,90.63,883,82.78,835.94,1.33H737l-2.51,4.34A438.19,438.19,0,0,1,878.44,90.63Z"/>
    <path class="cls-56" d="M711.08,46.33,690,82.78l48.24,83.55h96.47l15-25.91A313.38,313.38,0,0,1,711.08,46.33Z"/>
    <path class="cls-66" d="M711.08,46.33,690,82.78l48.24,83.55h96.47l15-25.91A313.38,313.38,0,0,1,711.08,46.33Z"/>
    <path class="cls-55" d="M711.08,46.33a313.6,313.6,0,0,0,138.61,94.11l28.75-49.8a437.84,437.84,0,0,0-143.89-85Z"/>
    <path class="cls-56" d="M711.08,46.33a313.6,313.6,0,0,0,138.61,94.11l28.75-49.8a437.84,437.84,0,0,0-143.89-85Z"/>
    <path class="cls-67" d="M711.08,46.33a313.6,313.6,0,0,0,138.61,94.11l28.75-49.8a437.84,437.84,0,0,0-143.89-85Z"/>
    <polygon class="cls-3" points="709.39 44.33 687.19 82.78 736.84 168.79 736.84 168.79 836.16 168.79 852.09 141.21 880.32 92.31 885.81 82.78 838.78 1.33 835.94 1.33 882.97 82.78 878.45 90.63 849.69 140.43 834.73 166.34 738.26 166.34 690.03 82.78 711.08 46.33 734.55 5.67 737.06 1.33 734.21 1.33 732.19 4.84 709.39 44.33"/>
    <polygon class="cls-68" points="989.82 77 1033.51 1.33 849.67 1.33 893.35 77 989.82 77"/>
    <polygon class="cls-69" points="989.82 77 1033.51 1.33 849.67 1.33 893.35 77 989.82 77"/>
    <polygon class="cls-68" points="846.83 1.33 846.83 1.33 891.93 79.45 846.83 1.33"/>
    <polygon class="cls-70" points="846.83 1.33 846.83 1.33 891.93 79.45 846.83 1.33"/>
    <polygon class="cls-68" points="991.25 79.45 1016.07 36.45 991.25 79.45 991.25 79.45"/>
    <polygon class="cls-71" points="991.25 79.45 1016.07 36.45 991.25 79.45 991.25 79.45"/>
    <polygon class="cls-3" points="991.25 79.45 1016.07 36.45 1036.35 1.33 1033.51 1.33 989.82 77 893.35 77 849.67 1.33 846.83 1.33 891.93 79.45 991.25 79.45"/>
    <polygon class="cls-72" points="993.97 253.31 1016.07 215.03 993.97 253.31 993.97 253.31"/>
    <path class="cls-73" d="M1024,147.78a313.92,313.92,0,0,1-74.46,8.94c-3.5,0-7-.08-10.45-.19a438,438,0,0,1,53.63,93.92L1038,172Z"/>
    <path class="cls-55" d="M939.15,156.53c3.47.11,7,.19,10.45.19a313.59,313.59,0,0,0,74.42-8.94l-34.2-59.29H893.35l-5.94,10.3A440.24,440.24,0,0,1,939.15,156.53Z"/>
    <path class="cls-74" d="M939.15,156.53c3.47.11,7,.19,10.45.19a313.59,313.59,0,0,0,74.42-8.94l-34.2-59.29H893.35l-5.94,10.3A440.24,440.24,0,0,1,939.15,156.53Z"/>
    <polygon class="cls-68" points="891.93 86.02 885.56 97.06 885.56 97.06 891.93 86.02"/>
    <polygon class="cls-75" points="891.93 86.02 885.56 97.06 885.56 97.06 891.93 86.02"/>
    <polygon class="cls-68" points="991.25 86.02 991.25 86.02 1016.07 129.03 991.25 86.02"/>
    <polygon class="cls-76" points="991.25 86.02 991.25 86.02 1016.07 129.03 991.25 86.02"/>
    <path class="cls-56" d="M861.27,144.06l-16.15,28,48.23,83.55h96.47l3-5.12a437.86,437.86,0,0,0-53.63-93.93A312.72,312.72,0,0,1,861.27,144.06Z"/>
    <path class="cls-77" d="M861.27,144.06l-16.15,28,48.23,83.55h96.47l3-5.12a437.86,437.86,0,0,0-53.63-93.93A312.72,312.72,0,0,1,861.27,144.06Z"/>
    <polygon class="cls-58" points="858.84 143.34 858.84 143.34 842.28 172.03 891.93 258.04 842.28 172.03 858.84 143.34"/>
    <polygon class="cls-78" points="858.84 143.34 858.84 143.34 842.28 172.03 891.93 258.04 842.28 172.03 858.84 143.34"/>
    <polygon class="cls-58" points="991.25 258.04 991.25 258.04 993.97 253.31 993.97 253.31 991.25 258.04"/>
    <polygon class="cls-79" points="991.25 258.04 991.25 258.04 993.97 253.31 993.97 253.31 991.25 258.04"/>
    <polygon class="cls-68" points="885.56 97.06 885.56 97.06 858.84 143.34 858.84 143.34 885.56 97.06"/>
    <polygon class="cls-58" points="885.56 97.06 885.56 97.06 858.84 143.34 858.84 143.34 885.56 97.06"/>
    <polygon class="cls-80" points="885.56 97.06 885.56 97.06 858.84 143.34 858.84 143.34 885.56 97.06"/>
    <path class="cls-55" d="M887.41,98.78l-26.14,45.28a313.37,313.37,0,0,0,77.88,12.47A441,441,0,0,0,887.41,98.78Z"/>
    <path class="cls-56" d="M887.41,98.78l-26.14,45.28a313.37,313.37,0,0,0,77.88,12.47A441,441,0,0,0,887.41,98.78Z"/>
    <path class="cls-81" d="M887.41,98.78l-26.14,45.28a313.37,313.37,0,0,0,77.88,12.47A441,441,0,0,0,887.41,98.78Z"/>
    <path class="cls-3" d="M991.24,86H891.93l-6.37,11-26.72,46.32L842.28,172l49.65,86h99.31l2.78-4.7,22.1-38.27,24.83-43L1026.6,147.2l-10.48-18.14Zm-1.42,169.57H893.35L845.12,172l16.15-28,26.14-45.28,5.94-10.3h96.47l34.2,59.33L1038,172l-45.28,78.42Z"/>
    <polygon class="cls-58" points="581.75 265.21 536.02 344.43 536.02 344.43 581.75 265.21 581.75 265.21"/>
    <polygon class="cls-82" points="581.75 265.21 536.02 344.43 536.02 344.43 581.75 265.21 581.75 265.21"/>
    <polygon class="cls-58" points="679.65 434.76 727.88 351.23 679.65 267.68 583.18 267.68 536.02 349.36 536.02 353.08 583.18 434.76 679.65 434.76"/>
    <polygon class="cls-83" points="679.65 434.76 727.88 351.23 679.65 267.68 583.18 267.68 536.02 349.36 536.02 353.08 583.18 434.76 679.65 434.76"/>
    <polygon class="cls-58" points="581.75 437.23 536.02 358.01 536.02 358.01 581.75 437.23 581.75 437.23"/>
    <polygon class="cls-84" points="581.75 437.23 536.02 358.01 536.02 358.01 581.75 437.23 581.75 437.23"/>
    <polygon class="cls-3" points="681.07 437.23 730.72 351.23 681.07 265.21 581.75 265.21 536.02 344.43 536.02 349.36 583.18 267.68 679.65 267.68 727.88 351.23 679.65 434.76 583.18 434.76 536.02 353.08 536.02 358.01 581.75 437.23 681.07 437.23"/>
    <polygon class="cls-58" points="583.18 446.25 574.47 461.33 688.35 461.33 679.65 446.25 583.18 446.25"/>
    <polygon class="cls-85" points="583.18 446.25 574.47 461.33 688.35 461.33 679.65 446.25 583.18 446.25"/>
    <polygon class="cls-58" points="581.75 443.8 571.62 461.33 571.62 461.33 581.75 443.8 581.75 443.8"/>
    <polygon class="cls-86" points="581.75 443.8 571.62 461.33 571.62 461.33 581.75 443.8 581.75 443.8"/>
    <polygon class="cls-3" points="581.75 443.8 571.62 461.33 574.47 461.33 583.18 446.25 679.65 446.25 688.35 461.33 691.2 461.33 681.07 443.8 581.75 443.8"/>
    <polygon class="cls-58" points="834.73 178.44 738.26 178.44 690.03 261.99 738.26 345.52 834.73 345.52 882.97 261.99 834.73 178.44"/>
    <polygon class="cls-87" points="834.73 178.44 738.26 178.44 690.03 261.99 738.26 345.52 834.73 345.52 882.97 261.99 834.73 178.44"/>
    <path class="cls-3" d="M836.16,176H736.84l-49.65,86,49.65,86h99.32l49.65-86Zm-1.43,169.56H738.26L690,262l48.23-83.55h96.47L883,262Z"/>
    <polygon class="cls-58" points="834.73 357.01 738.26 357.01 690.03 440.56 702.02 461.33 870.97 461.33 882.97 440.56 834.73 357.01"/>
    <polygon class="cls-88" points="834.73 357.01 738.26 357.01 690.03 440.56 702.02 461.33 870.97 461.33 882.97 440.56 834.73 357.01"/>
    <polygon class="cls-3" points="836.16 354.56 736.84 354.56 736.84 354.56 687.19 440.56 699.18 461.33 702.02 461.33 690.03 440.56 738.26 357.01 834.73 357.01 882.97 440.56 870.97 461.33 873.82 461.33 885.81 440.56 836.16 354.56"/>
    <polygon class="cls-89" points="1026.15 325.67 1008.69 295.44 1008.69 295.44 1026.15 325.67"/>
    <path class="cls-90" d="M1038,351.23,1011.35,305a436.71,436.71,0,0,1,12.8,70.22Z"/>
    <polygon class="cls-58" points="891.93 265.21 842.28 351.21 891.93 437.23 842.28 351.23 891.93 265.21"/>
    <polygon class="cls-91" points="891.93 265.21 842.28 351.21 891.93 437.23 842.28 351.23 891.93 265.21"/>
    <polygon class="cls-58" points="991.25 265.21 1008.69 295.44 1008.69 295.44 991.25 265.21 991.25 265.21"/>
    <polygon class="cls-92" points="991.25 265.21 1008.69 295.44 1008.69 295.44 991.25 265.21 991.25 265.21"/>
    <polygon class="cls-58" points="991.25 437.23 1010.51 403.86 991.25 437.23 991.25 437.23"/>
    <polygon class="cls-93" points="991.25 437.23 1010.51 403.86 991.25 437.23 991.25 437.23"/>
    <path class="cls-56" d="M1011.39,305l-21.57-37.36H893.35l-48.23,83.56,48.23,83.54h96.47l34.37-59.52A436.71,436.71,0,0,0,1011.39,305Z"/>
    <path class="cls-94" d="M1011.39,305l-21.57-37.36H893.35l-48.23,83.56,48.23,83.54h96.47l34.37-59.52A436.71,436.71,0,0,0,1011.39,305Z"/>
    <path class="cls-3" d="M991.24,265.22H891.93l-49.65,86,49.65,86h99.31l19.27-33.37,14.08-24.38,16.31-28.25-14.75-25.56-17.46-30.22Zm-1.42,169.54H893.35l-48.23-83.53,48.23-83.55h96.47L1011.39,305l26.63,46.2-13.87,24Z"/>
  </g>
  <circle class="cls-95" cx="512.71" cy="84.23" r="12"/>
  <circle class="cls-96" cx="505.43" cy="258.04" r="19.28"/>
  <circle class="cls-97" cx="1067.29" cy="310.55" r="8.79"/>
  <circle class="cls-98" cx="1040.95" cy="207.57" r="23.76"/>
</svg>
